<?xml version="1.0" standalone="no"?>
<!DOCTYPE svg PUBLIC "-//W3C//DTD SVG 20010904//EN"
 "http://www.w3.org/TR/2001/REC-SVG-20010904/DTD/svg10.dtd">
<svg version="1.0" xmlns="http://www.w3.org/2000/svg"
 width="500.000000pt" height="500.000000pt" viewBox="0 0 500.000000 500.000000"
 preserveAspectRatio="xMidYMid meet">

<g transform="translate(0.000000,500.000000) scale(0.100000,-0.100000)"
fill="#000000" stroke="none">
<path d="M0 2500 l0 -2500 2500 0 2500 0 0 2500 0 2500 -2500 0 -2500 0 0
-2500z m2940 1015 c183 -67 351 -205 503 -413 65 -89 87 -154 87 -256 0 -290
-283 -634 -915 -1112 -264 -199 -391 -274 -579 -338 -265 -91 -570 -99 -809
-21 -220 71 -431 236 -512 399 -21 42 -25 64 -25 140 0 81 4 99 33 167 105
240 390 529 892 905 218 163 499 362 579 409 94 55 221 109 320 135 58 16 97
19 211 16 123 -3 149 -7 215 -31z"/>
<path d="M2580 3473 c-117 -20 -250 -73 -365 -143 -152 -93 -646 -455 -868
-635 -408 -331 -602 -592 -584 -785 6 -69 23 -105 94 -193 77 -96 172 -171
288 -227 114 -55 188 -76 327 -91 283 -31 676 81 933 266 44 32 112 81 150
108 326 233 652 537 773 720 94 144 126 237 120 351 -5 94 -22 133 -106 246
-154 207 -348 346 -526 379 -58 11 -185 13 -236 4z m-1215 -1013 c7 0 16 7 18
15 4 11 4 10 3 -2 -2 -22 -40 -24 -42 -3 0 9 1 10 3 3 3 -7 11 -13 18 -13z
m155 10 c0 -14 -6 -20 -22 -19 -17 1 -19 2 -5 6 9 2 17 11 17 19 0 8 2 14 5
14 3 0 5 -9 5 -20z m338 -14 c12 -3 12 -4 -3 -3 -11 1 -20 9 -21 17 0 8 1 10
3 3 2 -6 12 -14 21 -17z m127 4 c7 0 16 7 18 15 4 11 4 10 3 -2 -2 -22 -40
-24 -42 -3 0 9 1 10 3 3 3 -7 11 -13 18 -13z m363 -4 c12 -3 12 -4 -3 -3 -11
1 -20 9 -21 17 0 8 1 10 3 3 2 -6 12 -14 21 -17z m127 4 c7 0 16 7 18 15 4 11
4 10 3 -2 -2 -22 -40 -24 -42 -3 0 9 1 10 3 3 3 -7 11 -13 18 -13z m363 -4
c12 -3 12 -4 -3 -3 -11 1 -20 9 -21 17 0 8 1 10 3 3 2 -6 12 -14 21 -17z m127
4 c7 0 16 7 18 15 4 11 4 10 3 -2 -2 -22 -40 -24 -42 -3 0 9 1 10 3 3 3 -7 11
-13 18 -13z m-1652 -7 c-7 -2 -19 -2 -25 0 -7 3 -2 5 12 5 14 0 19 -2 13 -5z
m130 0 c-7 -2 -19 -2 -25 0 -7 3 -2 5 12 5 14 0 19 -2 13 -5z m490 0 c-7 -2
-19 -2 -25 0 -7 3 -2 5 12 5 14 0 19 -2 13 -5z m490 0 c-7 -2 -19 -2 -25 0 -7
3 -2 5 12 5 14 0 19 -2 13 -5z m490 0 c-7 -2 -19 -2 -25 0 -7 3 -2 5 12 5 14
0 19 -2 13 -5z m-1548 -63 c7 0 16 7 18 15 4 11 4 10 3 -2 -2 -22 -40 -24 -42
-3 0 9 1 10 3 3 3 -7 11 -13 18 -13z m442 5 c-4 -8 -14 -14 -24 -14 -17 1 -17
2 0 6 9 2 17 12 17 20 0 9 3 14 6 10 4 -3 4 -13 1 -22z m490 0 c-4 -8 -14 -14
-24 -14 -17 1 -17 2 0 6 9 2 17 12 17 20 0 9 3 14 6 10 4 -3 4 -13 1 -22z
m178 -5 c7 0 16 7 18 15 4 11 4 10 3 -2 -2 -22 -40 -24 -42 -3 0 9 1 10 3 3 3
-7 11 -13 18 -13z m312 5 c-4 -8 -14 -14 -24 -14 -17 1 -17 2 0 6 9 2 17 12
17 20 0 9 3 14 6 10 4 -3 4 -13 1 -22z m178 -5 c7 0 16 7 18 15 4 11 4 10 3
-2 -2 -22 -40 -24 -42 -3 0 9 1 10 3 3 3 -7 11 -13 18 -13z m-1578 -55 c1 -16
1 -16 -3 -2 -7 22 -34 22 -34 0 0 -9 -3 -14 -6 -10 -4 3 -4 13 0 22 8 22 40
15 43 -10z m420 0 c1 -15 0 -15 -3 -3 -3 9 -13 19 -22 22 -12 3 -12 4 3 3 12
-1 21 -10 22 -22z m51 18 c-10 -2 -18 -12 -18 -20 0 -9 -3 -14 -6 -10 -12 11
5 37 23 36 17 -1 17 -2 1 -6z m75 0 c-7 -2 -19 -2 -25 0 -7 3 -2 5 12 5 14 0
19 -2 13 -5z m74 -18 c1 -16 1 -16 -3 -2 -7 22 -34 22 -34 0 0 -9 -3 -14 -6
-10 -4 3 -4 13 0 22 8 22 40 15 43 -10z m290 0 c1 -15 0 -15 -3 -3 -3 9 -13
19 -22 22 -12 3 -12 4 3 3 12 -1 21 -10 22 -22z m51 18 c-10 -2 -18 -12 -18
-20 0 -9 -3 -14 -6 -10 -12 11 5 37 23 36 17 -1 17 -2 1 -6z m75 0 c-7 -2 -19
-2 -25 0 -7 3 -2 5 12 5 14 0 19 -2 13 -5z m74 -18 c1 -16 1 -16 -3 -2 -7 22
-34 22 -34 0 0 -9 -3 -14 -6 -10 -4 3 -4 13 0 22 8 22 40 15 43 -10z m290 0
c1 -15 0 -15 -3 -3 -3 9 -13 19 -22 22 -12 3 -12 4 3 3 12 -1 21 -10 22 -22z
m51 18 c-10 -2 -18 -12 -18 -20 0 -9 -3 -14 -6 -10 -12 11 5 37 23 36 17 -1
17 -2 1 -6z m75 0 c-7 -2 -19 -2 -25 0 -7 3 -2 5 12 5 14 0 19 -2 13 -5z m74
-18 c1 -16 1 -16 -3 -2 -7 22 -34 22 -34 0 0 -9 -3 -14 -6 -10 -4 3 -4 13 0
22 8 22 40 15 43 -10z m-1622 -75 c7 0 16 7 18 15 4 11 4 10 3 -2 -2 -22 -40
-24 -42 -3 0 9 1 10 3 3 3 -7 11 -13 18 -13z m620 0 c7 0 16 7 18 15 4 11 4
10 3 -2 -2 -22 -40 -24 -42 -3 0 9 1 10 3 3 3 -7 11 -13 18 -13z m312 5 c-4
-8 -14 -14 -24 -14 -17 1 -17 2 0 6 9 2 17 12 17 20 0 9 3 14 6 10 4 -3 4 -13
1 -22z m178 -5 c7 0 16 7 18 15 4 11 4 10 3 -2 -2 -22 -40 -24 -42 -3 0 9 1
10 3 3 3 -7 11 -13 18 -13z m312 5 c-4 -8 -14 -14 -24 -14 -17 1 -17 2 0 6 9
2 17 12 17 20 0 9 3 14 6 10 4 -3 4 -13 1 -22z m178 -5 c7 0 16 7 18 15 4 11
4 10 3 -2 -2 -22 -40 -24 -42 -3 0 9 1 10 3 3 3 -7 11 -13 18 -13z m-1578 -55
c1 -16 1 -16 -3 -2 -7 22 -34 22 -34 0 0 -9 -3 -14 -6 -10 -4 3 -4 13 0 22 8
22 40 15 43 -10z m420 0 c1 -15 0 -15 -3 -3 -3 9 -13 19 -22 22 -12 3 -12 4 3
3 12 -1 21 -10 22 -22z m51 18 c-10 -2 -18 -12 -18 -20 0 -9 -3 -14 -6 -10
-12 11 5 37 23 36 17 -1 17 -2 1 -6z m75 0 c-7 -2 -19 -2 -25 0 -7 3 -2 5 12
5 14 0 19 -2 13 -5z m364 -18 c1 -15 0 -15 -3 -3 -3 9 -13 19 -22 22 -12 3
-12 4 3 3 12 -1 21 -10 22 -22z m51 18 c-10 -2 -18 -12 -18 -20 0 -9 -3 -14
-6 -10 -12 11 5 37 23 36 17 -1 17 -2 1 -6z m75 0 c-7 -2 -19 -2 -25 0 -7 3
-2 5 12 5 14 0 19 -2 13 -5z m364 -18 c1 -15 0 -15 -3 -3 -3 9 -13 19 -22 22
-12 3 -12 4 3 3 12 -1 21 -10 22 -22z m51 18 c-10 -2 -18 -12 -18 -20 0 -9 -3
-14 -6 -10 -12 11 5 37 23 36 17 -1 17 -2 1 -6z m75 0 c-7 -2 -19 -2 -25 0 -7
3 -2 5 12 5 14 0 19 -2 13 -5z"/>
</g>
</svg>
